<?xml version="1.0" encoding="utf-8"?>
<!-- Designed by Vexels.com - 2020 All Rights Reserved - https://vexels.com/terms-and-conditions/  -->
<svg version="1.1" id="Layer_1" xmlns="http://www.w3.org/2000/svg" xmlns:xlink="http://www.w3.org/1999/xlink" x="0px" y="0px"
	 viewBox="0 0 1200 1200" enable-background="new 0 0 1200 1200" xml:space="preserve">
<g>
	<path fill="#08535B" d="M718.363,723.962c1.172,1.484,1.735,2.251,1.977,2.622c0.208,0.217,0.484,0.514,0.707,0.868
		c1.875,1.902,3.682,4.421,5.433,6.858c0.775,1.083,1.543,2.151,2.299,3.138c0.091,0.1,0.624,0.762,1.146,1.404
		c0.461,0.569,0.911,1.123,1.032,1.267l1.176,1.388c0.866,1.03,1.732,2.072,2.684,3c1.614,1.577,3.214,2.758,5.066,4.125
		c3.535,2.616,6.953,5.316,10.393,8.036l1.448,1.142c2.181,1.724,4.386,3.781,6.714,5.96c5.051,4.718,10.272,9.599,15.172,10.86
		c2.59,0.665,6.079,0.977,7.988-1.331c2.287-2.771,1.962-8.765-0.79-14.578c-2.174-4.597-7.058-9.852-11.368-14.487
		c-1.879-2.019-3.671-3.947-5.146-5.709c-1.44-1.72-2.945-3.418-4.45-5.121c-3.422-3.871-6.96-7.875-9.833-12.2
		c-0.253-0.227-0.427-0.499-0.522-0.792c-0.665-0.873-2.068-2.612-2.408-3c-0.064-0.06-0.121-0.127-0.178-0.197
		c-9.051-11.688-16.627-25.011-23.954-37.895c-1.754-3.087-3.501-6.157-5.255-9.185c-2.042-3.518-4.155-7.009-6.268-10.503
		c-2.877-4.756-5.856-9.675-8.605-14.607c-0.219-0.389-0.465-0.796-0.715-1.214c-1.308-2.161-2.93-4.849-2.238-7.605
		c0.393-1.565,1.467-2.877,3.191-3.9c4.11-2.433,6.911,0.062,8.956,1.892c4.537,4.045,7.864,10.684,10.797,16.54
		c1.18,2.359,2.314,4.62,3.44,6.556l1.584,2.72c4.291,7.361,8.582,14.724,12.979,22.018l3.274,5.471
		c3.648,6.125,7.418,12.455,11.455,18.361c0.767,1.125,1.127,1.652,1.304,1.898c0.079,0.072,0.155,0.151,0.234,0.24
		c0.155,0.125,0.291,0.268,0.401,0.427c0.064,0.091,0.117,0.187,0.166,0.287c0.042,0.053,0.079,0.108,0.121,0.164
		c0.072,0.096,0.132,0.197,0.185,0.301c0.688,0.788,1.618,1.977,2.964,3.694c3.093,3.894,6.144,7.964,9.236,12.085
		c8.355,11.143,16.998,22.667,26.952,31.394c6.404,5.618,34.6,21.187,47.617,19.155c2.454-0.378,4.121-1.338,5.089-2.936
		c3.679-6.066-5.629-19.066-12.431-28.559c-3.527-4.93-6.578-9.187-7.818-12.272c-1.304-3.24-2.136-6.582-2.938-9.813
		c-1.047-4.21-2.034-8.185-3.977-11.913c-3.059-5.873-6.593-11.555-10.567-17.843c-2.102-3.333-4.756-6.775-7.565-10.418
		c-6.979-9.051-14.884-19.308-15.573-30.347c-0.654-10.535-1.841-16.321-7.512-24.899c-2.008-3.038-4.091-6.021-6.17-9.002
		c-3.769-5.399-7.667-10.983-11.062-16.828c-4.374-7.537-8.764-15.659-10.121-24.784c-1.142-7.635-0.983-15.608-0.828-23.319
		c0.079-3.949,0.163-8.032,0.06-11.941c-0.465-17.794-2.548-34.321-6.367-50.524c-11.988-50.855-37.152-97.794-61.485-143.186
		c-4.249-7.922-8.491-15.833-12.658-23.754c-2.696-5.121-5.293-10.348-7.898-15.591c-9.115-18.346-18.544-37.315-32.68-52.277
		c-3.641-3.852-7.932-7.523-12.079-11.075c-6.302-5.393-12.816-10.971-17.618-17.578c-3.384-4.658-5.735-10.159-8.011-15.48
		c-1.093-2.552-2.174-5.083-3.353-7.478c-4.446-9.013-9.667-19.41-15.421-28.744c-5.334-8.654-12.393-16.476-19.221-24.041
		c-4.541-5.032-9.236-10.236-13.417-15.669c-4.476-5.815-8.692-11.945-12.771-17.873c-6.181-8.983-12.571-18.272-19.92-26.529
		c-23.032-25.882-60.577-42.595-91.507-40.689c-11.939,0.783-22.933,3.361-32.672,7.665c-6.03,2.667-11.399,6.627-17.414,12.841
		c-0.56,0.578-1.308,1.291-2.151,2.096c-2.31,2.197-5.905,5.622-7.399,8.295c14.726,5.618,27.3,17.674,33.629,24.544
		c5.603,6.091,11.142,13.308,16.457,21.448c2.416,3.707,4.318,6.881,5.981,9.988c0.178,0.329,0.813,1.662,1.493,3.091
		c0.646,1.357,1.331,2.809,1.671,3.48c0.11,0.136,0.204,0.289,0.276,0.459c9.225,21.457,11.659,42.804,7.244,63.451
		c-0.688,3.212-1.346,6.478-2.008,9.765c-2.314,11.516-4.707,23.421-8.669,34.372c-0.926,2.563-1.871,5.115-2.82,7.661
		c-5.716,15.395-11.119,29.935-11.951,46.069c-0.919,17.894,0.922,36.914,5.331,55.006c6.348,26.024,18.763,54.698,35.912,82.923
		c6.276,10.338,13.474,21.228,22,33.294c5.312,7.512,8.068,9.469,9.236,9.968c0.575,0.242,1.164,0.251,1.977,0.265
		c1.395,0.023,3.308,0.055,5.607,1.529c8.593,5.514,15.111,14.661,21.051,23.555c1.531,2.295,2.968,4.635,4.393,6.964
		c4.079,6.654,7.932,12.937,13.807,17.882c0.692,0.582,1.962,1.376,3.308,2.217c4.283,2.682,9.614,6.019,10.06,10.338
		c0.193,1.89-0.552,3.656-2.212,5.246c-1.369,1.308-3.013,1.955-5.089,1.86c-6.597-0.25-15.228-8.376-21.308-15.147
		c-3.202-3.561-5.644-7.62-8.007-11.546c-0.677-1.13-1.361-2.263-2.057-3.384c-1.524-2.444-3.081-4.87-4.688-7.259
		c-0.125-0.185-0.571-0.803-1.123-1.569c-1.645-2.272-2.635-3.648-3.123-4.569c-1.474-1.87-2.93-3.684-4.473-5.418
		c0.144,1.439,0.287,2.875,0.427,4.308c1.323,13.463,2.575,26.181,7.871,38.627c0.707,1.662,1.577,3.346,2.457,5.057
		c2.265,4.401,4.609,8.953,4.888,13.947c0.491,8.593-5.932,11.113-11.595,13.338c-1.047,0.412-2.113,0.83-3.164,1.291
		c-1.062,0.465-2.17,0.934-3.308,1.416c-7.826,3.31-16.695,7.062-20.559,13.996c-0.805,1.452-0.994,2.989-1.214,4.767
		c-0.151,1.242-0.306,2.527-0.696,3.866c-1.081,3.705-2.938,5.803-4.9,8.026c-0.73,0.824-1.493,1.688-2.265,2.699
		c-2.302,3.015-3.433,5.714-3.025,7.227c0.11,0.416,0.401,1.03,1.633,1.541c2.227,0.915,6.125-3.019,8.234-5.13
		c0.439-0.439,0.836-0.837,1.187-1.17c4.197-3.975,8.091-5.773,13.024-8.049l0.42-0.197c3.527-1.629,7.036-3.698,10.427-5.699
		c9.009-5.316,18.291-10.828,29.92-9.601c7.973,0.834,13.886,5.393,19.603,9.803c1.902,1.467,3.8,2.936,5.777,4.257
		c3.645,2.44,4.65,1.994,4.665,1.989c1.565-1.361-1.535-12.24-4.99-19.366c-2.06-4.246-4.677-10.527-3.614-16.039
		c1.225-6.368,5.501-5.883,10.915-5.249c4.892,0.567,8.741,2.726,12.484,7.004c6.741,7.694,10.072,16.692,13.297,25.393
		c1.558,4.202,3.164,8.546,5.153,12.769c3.879,8.236,7.618,16.699,11.232,24.882c4.416,9.998,8.983,20.336,13.826,30.302
		c8.843,18.213,16.302,37.317,23.516,55.791l4.272,10.911c4.752,12.062,9.591,24.098,14.431,36.132
		c5.811,14.455,11.622,28.911,17.285,43.409c10.019,25.657,21.497,56.175,30.676,87.979c1.482,5.136,2.771,10.436,4.136,16.047
		c3.172,13.047,6.45,26.536,12.28,37.6c3.641,6.917,7.557,6.108,10.185,4.902c6.775-3.117,7.259-13.858,7.58-20.966l0.03-0.612
		c0.042-0.917,0.722-1.679,1.626-1.822c0.106-0.017,0.208-0.025,0.306-0.025c0.794,0,1.524,0.49,1.811,1.251
		c2.9,7.66,5.58,15.529,8.17,23.138c3.013,8.843,6.128,17.986,9.591,26.814c4.117,10.499,9.244,23.567,17.327,31.495
		c1.565,1.535,3.452,2.65,5.452,3.83c2.023,1.197,4.113,2.433,5.947,4.176c3.561,3.386,6.329,8.455,8.771,12.93l1.255,2.28
		c16.14,28.878,34.43,61.609,60.282,87.255l0.866,0.864c4.495,4.488,13.841,13.814,19.913,13.045
		c2.552-0.327,4.151-1.251,4.885-2.824c1.792-3.843-1.032-12.036-7.747-22.476c-3.743-5.828-7.138-12.034-10.419-18.037
		c-4.752-8.69-9.667-17.675-15.667-25.516l-1.648-2.147c-4.435-5.756-9.954-12.92-14.518-20.966
		c-5.573-9.811-11.349-20.41-18.729-34.362c-12.544-23.712-24.215-48.294-35.5-72.068l-2.17-4.576
		c-10.85-22.843-22.151-47.562-31.292-73.556c-3.055-8.682-6.015-17.416-8.975-26.153c-5.868-17.306-11.932-35.203-18.695-52.434
		c-0.325-0.834-0.824-1.885-1.38-3.062c-2.42-5.127-5.731-12.145-2.983-16.372c1.429-2.202,3.161-3.355,5.145-3.431
		c2.302-0.123,4.745,1.412,6.975,4.34c2.321,3.042,3.69,7.684,5.017,12.172c0.616,2.091,1.198,4.064,1.826,5.675
		c2.885,7.389,5.444,15.036,7.917,22.432l0.48,1.429c1.437,4.3,2.866,8.616,4.299,12.935c6.533,19.729,13.293,40.13,21.274,59.539
		l0.295,0.694c0.004,0.017,0.011,0.034,0.019,0.051l0.008,0.015c0.011,0.032,0.026,0.064,0.038,0.096
		c19.652,47.661,43.689,97.066,71.488,146.94c1.259,2.261,2.473,4.694,3.709,7.179c4.189,8.418,8.522,17.122,15.898,21.472
		c4.775,2.815,13.784,5.58,16.518,3.351c1.327-1.089,0.756-3.764,0.042-5.817c-1.565-4.503-5.966-8.93-10.219-13.213
		c-2.658-2.673-5.164-5.2-7.077-7.792l-1.077-1.463c-6.76-9.162-13.75-18.639-19.395-28.801
		c-21.516-38.721-41.009-82.571-59.602-134.054c-4.159-11.523-8.178-23.315-12.064-34.719c-3.274-9.609-6.548-19.219-9.943-28.784
		c-4.231-11.924-8.038-24.207-11.399-35.045c-1.652-5.334-3.342-10.656-5.032-15.979l-0.987-3.102
		c-0.352-1.113-0.677-2.257-1.006-3.408c-0.594-2.093-1.206-4.257-2-6.185c-0.193-0.465-1.448-2.544-2.197-3.784
		c-0.711-1.18-1.244-2.062-1.558-2.758c-0.786-1.026-1.561-2.062-2.336-3.1c-1.75-2.34-3.558-4.758-5.444-7.002l-0.008,0.004
		c-0.635-0.766-1.236-1.573-1.83-2.367c-1.074-1.342-2.612-3.285-3.667-4.701c-0.049-0.066-0.091-0.134-0.132-0.202
		c-0.348-0.459-0.79-1.04-1.323-1.739c-1.508-2.021-2.975-4.047-4.412-6.096c-2.227-3.259-4.476-6.773-7.304-11.414
		c-2.877-4.713-5.535-9.624-8.102-14.372c-1.917-3.548-3.837-7.094-5.856-10.586c-8.786-15.175-17.089-28.725-29.701-40.846
		c-6.257-6.013-13.69-10.809-20.877-15.45c-6.446-4.161-13.115-8.465-19.028-13.68c-7.648-6.747-13.489-14.342-17.848-23.217
		c-2.215-4.51-4.329-10.554-1.834-13.731c1.372-1.747,3.705-2.274,6.903-1.569c4.318,0.949,7.081,6.873,9.758,12.599
		c1.21,2.594,2.352,5.042,3.361,6.306c4.673,5.875,10.378,10.888,18.495,16.253c13.489,8.911,27.708,19.073,40.317,32.973
		c10.329,11.385,17.361,24.109,24.805,37.581l0.605,1.098c1.1,1.985,2.181,3.973,3.263,5.96c3.304,6.079,6.726,12.366,10.518,18.312
		c3.149,4.93,6.057,9.162,8.888,12.937c0.144,0.191,2.147,2.83,3.282,4.297C718.159,723.733,718.265,723.841,718.363,723.962z
		 M734.707,628.302c2.336-1.123,5.304-0.779,7.731,0.896c2.832,1.955,4.975,5.862,6.869,9.31c0.775,1.414,1.508,2.756,2.223,3.82
		c1.811,2.699,3.656,5.376,5.501,8.051c1.486,2.155,2.975,4.308,4.442,6.476c5.996,8.847,11.712,18.036,17.243,26.922
		c4.064,6.533,8.643,12.255,13.493,18.313c1.569,1.956,3.142,3.922,4.707,5.928l0.692,0.858c1.777,2.178,4.212,5.157,2.631,8.979
		c-0.9,2.178-3.142,3.822-5.705,4.191c-0.344,0.049-0.688,0.074-1.021,0.074c-1.871,0-3.535-0.764-4.669-2.172
		c-10.559-13.312-20.514-27.387-32.283-45.653c-3.323-5.155-6.881-10.293-10.321-15.261c-2.59-3.737-5.176-7.474-7.697-11.257
		c-0.405-0.607-0.998-1.38-1.671-2.255c-2.688-3.508-6.038-7.875-5.788-11.431C731.27,631.431,732.589,629.321,734.707,628.302z
		 M475.975,118.335c-0.964,0.537-2.072,0.801-3.248,0.801c-1.577,0-3.274-0.478-4.903-1.42c-1.331-0.767-2.053-2.163-2.692-3.395
		c-0.287-0.55-0.688-1.321-1.025-1.698c-1.675,0.369-6.363,1.675-7.274,1.958c-0.11,0.043-0.227,0.077-0.348,0.098
		c-6.091,1.121-10.556,0.565-13.281-1.635c-1.021-0.824-1.773-1.851-2.253-3.068c-0.541,0.435-1.112,0.911-1.694,1.395
		c-4.31,3.586-9.172,7.648-13.61,6.533c-4.079-1.129-5.089-3.321-5.221-4.962c-0.624-7.554,17.092-17.2,17.27-17.283
		c10.828-5.021,24.279-3.138,33.485,4.699c2.65,2.259,8.162,6.956,8,12.036C479.094,115.125,477.956,117.235,475.975,118.335z
		 M622.826,661.13c2.949-2.043,7.251-1.465,10,1.348c2.163,2.21,3.444,6.1,4.575,9.533c0.469,1.412,0.904,2.743,1.361,3.796
		c1.244,2.875,2.571,5.711,3.894,8.548c0.866,1.854,1.732,3.709,2.575,5.575c6.317,13.932,12.31,28.379,18.325,44.164
		c2.48,6.507,5.074,12.979,7.667,19.453c4.431,11.064,9.013,22.504,12.945,33.971c1.13,3.289,2.249,6.603,3.376,9.932
		c4.783,14.132,9.728,28.744,15.478,42.232c2.223,6.204,5.962,14.503,9.576,22.529c1.478,3.282,2.926,6.495,4.219,9.455
		c2.673,6.119,4.96,11.869,6.99,17.58c0.287,0.809,0.79,1.894,1.357,3.121c1.966,4.28,4.412,9.605,3.07,13.036
		c-1.376,3.497-3.225,5.27-5.493,5.27c-0.03,0-0.057,0-0.083,0c-5.346-0.1-9.886-10.966-14-22.691
		c-0.306-0.879-0.541-1.546-0.684-1.915c-1.312-3.323-2.749-6.588-4.185-9.854c-0.824-1.87-1.648-3.739-2.446-5.62
		c-0.488-1.149-0.968-2.686-1.474-4.335c-0.9-2.932-2.023-6.582-3.395-7.956c-3.807-3.805-6.181-11.28-8.28-17.873
		c-0.616-1.938-1.191-3.752-1.754-5.285c-2.798-7.627-5.463-15.31-8.132-22.994c-4.038-11.639-8.215-23.672-12.801-35.294
		l-3.104-7.868c-12.28-31.132-24.975-63.326-37.999-92.045c-1.077-2.452-2.174-4.875-3.289-7.285
		C619.204,665.568,620.747,662.57,622.826,661.13z M571.3,347.949c-2.265-1.369-4.529-2.737-6.775-4.128
		c-7.005-4.333-13.285-9.499-19.357-14.493c-5.656-4.656-11.508-9.469-17.879-13.538c-0.609-0.389-1.403-0.843-2.302-1.357
		c-4.994-2.856-12.544-7.172-11.807-12.89c0.352-2.705,1.463-4.495,3.316-5.321c3.928-1.752,9.387,1.998,12.317,4.011l0.37,0.253
		c2.605,1.781,5.293,3.437,7.981,5.093c3.592,2.212,7.304,4.499,10.782,7.07c2.798,2.068,5.164,4.503,7.455,6.856
		c2.045,2.102,3.977,4.087,6.189,5.839c6.336,5.004,13.493,9.264,20.415,13.383c6.265,3.73,12.745,7.584,18.699,12.03
		c7.599,5.671,12.964,12.557,18.151,19.219c3.308,4.244,6.726,8.633,10.692,12.656c6.597,6.703,11.992,15.177,17.209,23.372
		c1.021,1.603,2.026,3.183,3.028,4.724c1.478,2.284,3.111,4.535,4.748,6.794c2.669,3.682,5.425,7.489,7.576,11.501
		c1.1,2.053,2.646,7.559,0.076,10.552c-0.707,0.822-1.871,1.624-3.728,1.624c-0.851,0-1.849-0.17-3.017-0.584
		c-4.026-1.359-6.556-5.694-8.786-9.518c-0.65-1.115-1.267-2.172-1.871-3.043c-2.106-3.038-4.121-6.134-6.132-9.23
		c-2.469-3.794-5.021-7.718-7.697-11.438c-1.565-2.178-3.134-4.386-4.711-6.605c-7.062-9.949-14.366-20.238-22.589-29.007
		C594.411,361.922,582.664,354.818,571.3,347.949z M679.033,590.683c-4.438-1.463-8.159-4.142-11.758-6.733
		c-1.784-1.287-3.633-2.618-5.501-3.739c-5.558-3.333-11.327-5.138-18.835-6.968c-31.576-7.699-47.681-29.559-62.71-53.201
		c-1.282-2.03-1.338-4.544-0.147-6.731c1.232-2.265,3.531-3.69,6-3.716c3.671,0.096,5.713,2.97,7.104,5.168
		c0.227,0.357,0.446,0.709,0.673,1.038c1.104,1.62,2.106,3.321,3.104,5.023c0.745,1.272,1.49,2.542,2.284,3.773
		c2.635,4.1,2.752,4.249,4.162,6.074l0.715,0.928c0.635,0.641,1.463,1.635,2.662,3.068c1.459,1.754,3.119,3.745,3.837,4.525
		c3.406,3.701,6.767,7.263,10.499,10.183c7.985,6.253,17.209,8.52,26.132,10.712c10.079,2.478,17.637,5.612,24.499,10.162
		c9.236,6.123,14.692,7.731,25.421,9.189c0.129,0.017,0.25,0.047,0.367,0.087c1.085,0.151,2.605,0.359,3.633,0.497v-0.002
		l1.142,0.157c0.049,0.006,0.098,0.015,0.144,0.025c0.631,0.079,1.422,0.187,2.412,0.325l7.716,1.077
		c0.11,0.013,0.216,0.038,0.318,0.07c0.601,0.1,1.698,0.272,2.673,0.427c2.306,0.365,2.306,0.365,2.59,0.507
		c2.348,1.242,4.488,2.877,4.529,6.544c0.038,3.019-1.698,5.414-4.767,6.571c-0.215,0.081-0.786,0.123-1.535,0.123
		c-1.512,0-3.739-0.176-5.153-0.571c-2.767-0.323-5.648-0.565-8.578-0.809C694.666,593.796,686.394,593.106,679.033,590.683z"/>
	<path fill="#08535B" d="M359.417,216.466c5.255,4.915,7.486,4.803,8.049,4.652c0.582-0.159,1.047-0.824,1.387-1.975
		c0.435-1.48-1.104-5.176-2.019-7.384c-0.503-1.21-0.938-2.272-1.142-3.013c-2.454-8.85-3.111-17.875-1.849-25.413
		c0.888-5.304,2.522-8.259,5.138-9.3c3.837-1.531,8.057,1.648,12.941,5.334c1.096,0.826,2.223,1.677,3.369,2.488
		c8.083,5.72,17.058,9.227,28.877,11.251c0.749-15.034-1.887-29.143-8.238-44.217c-5.221-12.03-16.726-27.939-27.984-38.695
		c-4.473-4.268-10.763-8.722-14.113-10.996c-2.302-1.561-5.758-3.798-9.187-5.178c-2.094-0.843-3.421-1.316-4.465-1.316
		c-1.474,0-2.386,0.949-4.117,3.142c-13.709,17.151-18.544,35.846-15.686,60.624C332.79,177.438,345.274,203.23,359.417,216.466z"/>
</g>
</svg>
