<?xml version="1.0" standalone="no"?>
<!DOCTYPE svg PUBLIC "-//W3C//DTD SVG 20010904//EN"
 "http://www.w3.org/TR/2001/REC-SVG-20010904/DTD/svg10.dtd">
<svg version="1.0" xmlns="http://www.w3.org/2000/svg"
 width="700.000000pt" height="700.000000pt" viewBox="0 0 700.000000 700.000000"
 preserveAspectRatio="xMidYMid meet">
<metadata>
Created by potrace 1.14, written by Peter Selinger 2001-2017
</metadata>
<g transform="translate(0.000000,700.000000) scale(0.100000,-0.100000)"
fill="#000000" stroke="none">
<path d="M2395 6703 c-65 -11 -145 -39 -180 -63 -44 -31 -121 -107 -114 -114
2 -2 24 -14 48 -26 67 -34 201 -172 249 -259 8 -13 22 -39 32 -57 18 -31 46
-113 56 -164 25 -119 -6 -312 -86 -550 -66 -193 -74 -256 -55 -435 10 -96 46
-239 84 -330 39 -95 136 -274 205 -380 89 -134 112 -160 148 -169 43 -10 168
-148 168 -185 0 -6 4 -11 9 -11 5 0 12 -8 16 -19 7 -22 47 -64 99 -104 39 -30
44 -47 22 -70 -39 -39 -120 24 -213 165 -36 54 -67 98 -70 98 -7 0 6 -116 19
-170 6 -25 21 -65 34 -90 32 -65 38 -115 17 -136 -10 -9 -53 -34 -98 -54 -89
-41 -110 -60 -120 -107 -3 -17 -20 -50 -36 -72 -16 -23 -29 -45 -29 -51 0 -19
29 -10 60 18 16 16 81 54 144 86 105 55 116 58 168 54 44 -3 66 -13 114 -46
33 -23 63 -42 68 -42 10 0 -2 54 -25 106 -41 97 -27 141 40 129 57 -11 110
-73 145 -172 14 -40 139 -323 209 -473 44 -94 328 -811 396 -996 60 -168 88
-257 135 -433 20 -74 46 -152 59 -175 39 -72 89 -54 104 39 5 28 13 49 18 48
5 -1 30 -62 56 -135 90 -258 123 -322 190 -364 21 -13 51 -47 69 -76 17 -29
66 -111 108 -183 43 -71 103 -165 135 -208 75 -101 196 -222 231 -231 53 -13
67 26 33 92 -60 119 -210 359 -238 382 -6 5 -24 35 -104 180 -56 103 -262 523
-335 685 -34 75 -120 292 -120 301 0 5 -80 240 -97 284 -3 8 -7 20 -8 25 -4
15 -44 116 -60 152 -21 44 -19 80 6 93 22 13 42 2 60 -33 6 -10 53 -141 104
-291 103 -301 144 -408 234 -605 67 -146 198 -408 255 -511 19 -36 53 -98 73
-139 48 -93 87 -135 141 -152 79 -23 76 25 -7 111 -137 142 -363 589 -506
1005 -15 44 -31 89 -35 100 -4 11 -18 49 -30 85 -12 36 -26 74 -31 85 -4 11
-42 124 -83 252 l-74 231 -77 104 c-42 57 -90 128 -107 158 -144 263 -211 346
-362 449 -110 75 -187 151 -212 210 -25 59 -26 79 -4 91 27 15 54 -4 76 -53
25 -55 84 -112 197 -191 101 -71 190 -159 245 -240 18 -26 32 -49 32 -51 0 -1
32 -58 70 -126 95 -165 197 -297 290 -372 41 -34 77 -64 80 -67 21 -25 82 -60
103 -60 20 0 28 6 33 26 9 37 -13 77 -94 172 -133 154 -146 174 -314 462 -31
52 -61 105 -67 117 -23 44 16 76 57 46 13 -10 40 -47 59 -83 137 -251 338
-540 434 -623 67 -58 190 -113 274 -122 6 -1 18 3 29 8 30 14 14 68 -48 160
-31 47 -63 110 -74 148 -22 72 -100 208 -142 249 -24 24 -62 100 -71 143 -22
108 -33 134 -95 227 -58 88 -103 172 -111 210 -2 8 -6 89 -9 180 -2 91 -11
204 -19 252 -39 223 -140 480 -323 823 -41 77 -113 214 -160 305 -109 211
-159 287 -241 363 -128 120 -138 133 -210 279 -71 144 -110 203 -211 317 -30
35 -94 117 -141 182 -97 136 -150 195 -224 249 -135 100 -331 155 -470 133z
m288 -254 c47 -13 117 -77 113 -104 -2 -11 -14 -25 -27 -32 -20 -10 -27 -9
-44 7 -16 14 -30 17 -67 13 -33 -4 -55 -1 -70 9 -21 13 -25 13 -41 -3 -27 -25
-67 -33 -85 -16 -37 38 75 131 163 136 11 0 37 -4 58 -10z m429 -1219 c33 -22
63 -40 67 -40 4 0 27 -21 51 -46 25 -25 95 -76 156 -114 111 -70 154 -105 209
-170 17 -20 49 -58 72 -85 24 -28 79 -104 123 -170 90 -133 100 -170 45 -170
-26 0 -36 9 -78 75 -188 286 -251 355 -437 470 -47 28 -87 55 -90 59 -6 9
-156 121 -192 144 -53 33 -60 87 -11 87 14 0 52 -18 85 -40z m324 -1208 c6 -4
30 -36 54 -72 69 -104 145 -173 220 -198 35 -12 71 -22 80 -22 9 0 60 -22 113
-49 96 -50 117 -56 217 -67 66 -7 102 -27 93 -52 -10 -29 -25 -43 -42 -38 -9
3 -47 8 -86 11 -97 8 -135 20 -192 59 -27 18 -87 45 -133 59 -150 46 -241 116
-336 257 -48 70 -53 94 -26 109 21 12 24 13 38 3z m888 -688 c9 -3 26 -22 38
-42 57 -95 216 -333 260 -388 50 -64 56 -82 36 -102 -35 -35 -64 -5 -225 235
-59 87 -121 180 -139 206 -32 47 -35 72 -10 89 13 9 20 10 40 2z m-636 -196
c12 -16 105 -227 156 -358 21 -52 42 -104 47 -115 24 -56 77 -197 129 -345 57
-162 91 -250 133 -340 43 -95 97 -234 97 -250 0 -26 -28 -46 -48 -34 -21 14
-40 50 -80 154 -18 47 -44 107 -58 134 -14 27 -48 112 -76 190 -104 295 -144
397 -275 711 -42 99 -80 192 -86 207 -8 20 -8 30 2 42 16 19 45 21 59 4z"/>
<path d="M1999 6414 c-53 -77 -72 -146 -72 -254 0 -117 14 -172 72 -288 37
-76 130 -176 147 -159 4 4 1 26 -6 49 -30 97 -24 200 12 219 17 9 27 6 62 -19
53 -38 98 -60 151 -77 53 -15 58 -9 49 68 -14 136 -89 283 -200 392 -54 53
-145 115 -171 115 -7 0 -26 -21 -44 -46z"/>
</g>
</svg>
